<?xml version="1.0" encoding="utf-8"?>
<!-- Generator: Adobe Illustrator 22.1.0, SVG Export Plug-In . SVG Version: 6.00 Build 0)  -->
<svg version="1.1" id="Layer_3" xmlns="http://www.w3.org/2000/svg" xmlns:xlink="http://www.w3.org/1999/xlink" x="0px" y="0px"
	 viewBox="0 0 150 150" style="enable-background:new 0 0 150 150;" xml:space="preserve">
<style type="text/css">
	.st0{fill-rule:evenodd;clip-rule:evenodd;fill:url(#SVGID_1_);}
	.st1{fill-rule:evenodd;clip-rule:evenodd;fill:url(#SVGID_2_);}
	.st2{fill:#FFFFFF;}
	.st3{fill:#FF0000;stroke:#FFFFFF;stroke-width:4;stroke-miterlimit:10;}
	.st4{opacity:0.3;fill:#FFFFFF;}
</style>
<linearGradient id="SVGID_1_" gradientUnits="userSpaceOnUse" x1="75" y1="150" x2="75" y2="-9.094947e-13">
	<stop  offset="0" style="stop-color:#5421A2"/>
	<stop  offset="0.247" style="stop-color:#5D25A8"/>
	<stop  offset="0.6561" style="stop-color:#7732B6"/>
	<stop  offset="1" style="stop-color:#913EC6"/>
</linearGradient>
<path class="st0" d="M140,150H10c-5.5,0-10-4.5-10-10V10C0,4.5,4.5,0,10,0h130c5.5,0,10,4.5,10,10v130C150,145.5,145.5,150,140,150z
	"/>
<linearGradient id="SVGID_2_" gradientUnits="userSpaceOnUse" x1="75" y1="107" x2="75" y2="20">
	<stop  offset="0" style="stop-color:#CD5EE9"/>
	<stop  offset="0.3822" style="stop-color:#D467EB"/>
	<stop  offset="1" style="stop-color:#E680EF"/>
</linearGradient>
<path class="st1" d="M130,107H20c-5.5,0-10-4.5-10-10V30c0-5.5,4.5-10,10-10h110c5.5,0,10,4.5,10,10v67C140,102.5,135.5,107,130,107
	z"/>
<g>
	<g>
		<path class="st2" d="M20.6,46.4h10.8c7,0,12.1,2.5,12.1,9.7c0,6.9-5.1,10.2-12.1,10.2h-6.3v14.6h-4.5V46.4z M30.8,62.7
			c5.4,0,8.3-2.2,8.3-6.6c0-4.5-2.9-6.2-8.3-6.2h-5.7v12.8H30.8z M34,62.8l10.5,18.1h-5l-9-15.8L34,62.8z"/>
		<path class="st2" d="M47.4,68c0-8.3,6.2-13.4,13-13.4c7.4,0,11.7,4.8,11.7,12c0,1-0.1,1.9-0.2,2.6H50.3v-3.4h19l-1.1,1.2
			c0-6-3-9-7.7-9c-4.7,0-8.8,3.6-8.8,9.9c0,6.6,4.3,10,10,10c3.1,0,5.5-0.9,7.8-2.4l1.6,2.8c-2.5,1.7-5.8,3.1-9.9,3.1
			C53.5,81.5,47.4,76.6,47.4,68z"/>
		<path class="st2" d="M76.4,68.1c0-8.6,6.5-13.5,14.3-13.5c4.2,0,7.2,1.7,9.3,3.7l-2.2,2.8c-2.1-1.8-4.3-2.9-7-2.9
			c-5.9,0-9.9,3.9-9.9,9.8c0,5.8,4,9.7,9.8,9.7c3.2,0,5.8-1.4,7.9-3.2l1.9,2.8c-2.8,2.5-6.4,4-10.2,4C82.4,81.5,76.4,76.6,76.4,68.1
			z"/>
	</g>
</g>
<circle class="st3" cx="120" cy="63.5" r="9"/>
<g id="Layer_4">
</g>
<rect x="10" y="127" class="st4" width="130" height="3"/>
<rect x="10" y="127" class="st2" width="38" height="3"/>
</svg>
