<svg id="Layer_1" data-name="Layer 1" xmlns="http://www.w3.org/2000/svg" xmlns:xlink="http://www.w3.org/1999/xlink" viewBox="0 0 46.12 45.79"><defs><style>.cls-1{fill:none;}.cls-2{fill:#fcb738;}.cls-3{fill:#5a5a5a;}.cls-4{clip-path:url(#clip-path);}.cls-5{isolation:isolate;}</style><clipPath id="clip-path" transform="translate(0 -1)"><path class="cls-1" d="M32.82,21.62L17.58,11.67a3,3,0,0,0-2.92-.16,2.77,2.77,0,0,0-1.5,2.41V33.78a2.72,2.72,0,0,0,1.5,2.41A3.19,3.19,0,0,0,16,36.5,2.85,2.85,0,0,0,17.58,36l15.24-9.87a2.75,2.75,0,0,0,1.26-2.29,2.68,2.68,0,0,0-1.26-2.25h0Z"/></clipPath></defs><title>video_48x48</title><circle class="cls-2" cx="23.62" cy="22.91" r="22.5"/><path id="SVGID" class="cls-3" d="M32.82,21.62L17.58,11.67a3,3,0,0,0-2.92-.16,2.77,2.77,0,0,0-1.5,2.41V33.78a2.72,2.72,0,0,0,1.5,2.41A3.19,3.19,0,0,0,16,36.5,2.85,2.85,0,0,0,17.58,36l15.24-9.87a2.75,2.75,0,0,0,1.26-2.29,2.68,2.68,0,0,0-1.26-2.25h0Z" transform="translate(0 -1)"/><g class="cls-4"><image class="cls-5" width="47" height="47" transform="scale(0.97)" xlink:href="../A09C44D.jpg"/></g></svg>